<?xml version="1.0" encoding="UTF-8"?>
<!-- Generator: Adobe Illustrator 17.1.0, SVG Export Plug-In . SVG Version: 6.00 Build 0)  -->
<!DOCTYPE svg PUBLIC "-//W3C//DTD SVG 1.1//EN" "http://www.w3.org/Graphics/SVG/1.1/DTD/svg11.dtd">
<svg version="1.1" id="Layer_1" xmlns="http://www.w3.org/2000/svg" xmlns:xlink="http://www.w3.org/1999/xlink" x="0px" y="0px" width="1170.4px" height="1170px" viewBox="0 915 1170.4 1170" enable-background="new 0 915 1170.4 1170" xml:space="preserve">
<g>
	<g>
		<path fill="#00b4a0" d="M694.4,1657.2c59.9-242.1,51.4-437.5-3.1-460.8c-0.4,0-0.8,0-0.8-0.4l-4.3,35.4c0.4,0,0.8,0,0.8,0    c41.3,9.7,33.1,256.9-9.7,429.7C634.4,1833.6,527,2053.5,489.6,2034l-12.1,30c1.2,0.4,1.9,0.8,3.1,1.2    C537.5,2082.3,634.8,1899.3,694.4,1657.2"/>
		<path fill="#00b4a0" d="M759.8,2003.7c-110.5-2.3-247.2-66.6-362-180.2c-177.1-175.5-236.6-404-132.3-509.5l26.5,26.1    c-89.9,90.7-49,310.2,113.7,471.3s386.5,204,476.4,113.3l26.5,26.1C871.9,1988.1,819.7,2004.8,759.8,2003.7"/>
		<path fill="#00b4a0" d="M770.7,1277.8c69.3,0,128.1,21.8,165.4,66.6l-28.8,23.7c-81.3-98.5-308.3-78.2-485,67.7    S185.3,1798.5,267,1897l-28.8,23.7c-94.6-114.4-14.8-336.7,177.5-495.5C532.1,1328.7,664,1277.8,770.7,1277.8"/>
		<path fill="#00b4a0" d="M177.9,1697.3c-21-26.1,142.1-112.9,398.2-153.4c254.9-40.1,420-7.4,421.1,23.4l37-5.4    c-16-99.6-444.5-33.1-462.8-30.4s-446.8,71.6-431.3,171.3v0.4L177.9,1697.3C177.9,1697.7,177.9,1697.3,177.9,1697.3"/>
		<path fill="#00b4a0" d="M390,1837.8c-17.5,0-31.9-14.4-31.9-31.9c0-17.5,14.4-31.9,31.9-31.9c17.5,0,31.9,14.4,31.9,31.9    C421.9,1823.4,407.5,1837.8,390,1837.8"/>
		<path fill="#00b4a0" d="M388.1,1491c-17.5,0-31.9-14.4-31.9-31.9c0-17.5,14.4-31.9,31.9-31.9c17.5,0,31.9,14.4,31.9,31.9    C420,1476.6,405.6,1491,388.1,1491"/>
		<path fill="#00b4a0" d="M641.4,1552.9c-14,0-25.3-11.3-25.3-25.3c0-14,11.3-25.3,25.3-25.3c14,0,25.3,11.3,25.3,25.3    C666.3,1541.6,655.1,1552.9,641.4,1552.9"/>
		<path fill="#00b4a0" d="M697.1,1638.6c-17.5,0-31.9-14.4-31.9-31.9c0-17.5,14.4-31.9,31.9-31.9s31.9,14.4,31.9,31.9    C729.4,1624.2,715,1638.6,697.1,1638.6"/>
	</g>
	<g>
		<path fill="#00b4a0" d="M935.7,1344.3c94.6,114.4,21.8,341-170.5,499.8s-432.4,191.1-527,76.7L267,1897    c55.7,93,298.1,66.2,474.9-79.4c176.3-146,245.6-372.9,165.4-449.6L935.7,1344.3z"/>
		<path fill="#00b4a0" d="M908.4,1951.1L882,1925c89.9-90.7,34.6-300.1-128.1-461.2c-162.3-161.1-372.1-214.5-462-123.4l-26.5-26.1    c104.3-105.5,339.8-52.5,516.9,123C959.8,1612.9,1012.8,1845.6,908.4,1951.1"/>
		<path fill="#00b4a0" d="M605.6,1740.9c56-8.2,443.7-79,428.1-178.7l0,0l-36.6,5.4l0,0c0.8,28.4-146,96.9-401.3,137    c-255.7,40.1-400.9,22.6-418-7.4l-37.8,5.8C162.7,1802.4,537.5,1750.7,605.6,1740.9"/>
		<path fill="#00b4a0" d="M562.8,1087.4V939.1c0-13.2,10.9-24.1,24.1-24.1s24.1,10.9,24.1,24.1v148.7c0,13.2-10.9,24.1-24.1,24.1    C573.7,1111.6,562.8,1100.7,562.8,1087.4"/>
		<path fill="#00b4a0" d="M823.6,1167.6c-8.6-4.3-13.6-12.8-13.6-21.8c0-3.5,0.8-7,2.3-10.1l64.2-133.9c4.3-8.6,12.8-13.6,21.8-13.6    c3.5,0,7,0.8,10.1,2.3c8.6,3.9,13.6,12.8,13.6,21.8c0,3.5-0.8,7-2.3,10.5l-64.2,133.5c-4.3,8.6-12.8,13.6-21.8,13.6    C830.6,1169.9,826.7,1169.2,823.6,1167.6"/>
		<path fill="#00b4a0" d="M338.6,1167.6c-3.5,1.6-7,2.3-10.5,2.3c-9,0-17.5-5.1-21.8-13.6l-63.8-133.9c-1.6-3.5-2.3-7-2.3-10.5    c0-9,5.1-17.5,13.6-21.8c3.5-1.6,7-2.3,10.5-2.3c9,0,17.5,5.1,21.8,13.6l64.2,134.3c1.6,3.1,2.3,7,2.3,10.1    C352.6,1154.8,347.6,1163.7,338.6,1167.6"/>
		<path fill="#00b4a0" d="M999.5,1316.7c-2.3-3.9-3.5-8.2-3.5-12.8c0-8.2,3.9-16,11.3-20.6l126.1-78.2c3.9-2.3,8.2-3.5,12.8-3.5    c8.2,0,16,3.9,20.6,11.3c2.3,3.9,3.5,8.2,3.5,12.8c0,8.2-3.9,16-11.3,20.6l-126.1,78.2c-3.9,2.7-8.2,3.5-12.8,3.5    C1012,1328,1004.2,1324.1,999.5,1316.7"/>
		<path fill="#00b4a0" d="M170.5,1316.7c-4.7,7.4-12.5,11.3-20.2,11.3c-4.3,0-8.6-1.2-12.8-3.5l-126.1-78.6    c-7.4-4.3-11.3-12.1-11.3-20.2c0-4.3,1.2-8.6,3.5-12.8c4.7-7.4,12.5-11.3,20.2-11.3c4.3,0,8.6,1.2,12.8,3.5l126.1,78.2    c7.4,4.7,11.3,12.5,11.3,20.6C174.4,1308.1,173.2,1312.8,170.5,1316.7"/>
		<path fill="#00b4a0" d="M579.9,1771.3c-27.6,0-50.2-22.6-50.2-50.2c0-27.6,22.6-50.2,50.2-50.2c27.6,0,50.2,22.6,50.2,50.2    C630.1,1748.7,607.6,1771.3,579.9,1771.3"/>
		<path fill="#00b4a0" d="M822.4,1566.6c-30.4,0-54.9-24.5-54.9-54.9c0-30.4,24.5-54.9,54.9-54.9c30.4,0,54.9,24.5,54.9,54.9    C877.3,1542,852.8,1566.6,822.4,1566.6"/>
		<path fill="#00b4a0" d="M762.9,1882.6c-32.7,0-59.6-26.5-59.6-59.6c0-32.7,26.5-59.6,59.6-59.6c32.7,0,59.6,26.9,59.6,59.6    S795.6,1882.6,762.9,1882.6"/>
		<path fill="#00b4a0" d="M509.9,1610.1c-37.8,0-68.5-30.7-68.5-68.5s30.7-68.5,68.5-68.5s68.5,30.7,68.5,68.5    C578.4,1579.4,547.6,1610.1,509.9,1610.1"/>
		<path fill="#00b4a0" d="M489.3,2034.4c-48.7-26.9-21.4-253.4,21.4-426.2c42.4-172,127.7-384.9,175.5-376.4l4.3-35.4    c-56-21.8-157.6,137-218.7,406.7c-65.8,290.7-60.3,438.3,5.4,461.6L489.3,2034.4L489.3,2034.4"/>
		<path fill="#00b4a0" d="M586.9,1217.4c-228.9,0-415.3,186-415.3,415.3c0,228.9,186.4,415.3,415.3,415.3s415.3-186.4,415.3-415.3    C1002.2,1403.5,815.8,1217.4,586.9,1217.4 M586.9,2085c-249.5,0-452.7-203.2-452.7-452.7s203.2-452.3,452.7-452.3    s452.7,202.8,452.7,452.3C1039.6,1882.2,836.4,2085,586.9,2085"/>
	</g>
</g>
</svg>